<svg xmlns="http://www.w3.org/2000/svg" viewBox="0 0 1150 700" role="img" aria-label="Directed acyclic graph with 14 vertices and 23 edges">
  <style>
    .graph-svg { background: #fff; }
    .graph-edge { stroke: #6c757d; stroke-width: 2.4; stroke-linecap: round; }
    .directed-edge { fill: none; stroke: #495057; stroke-width: 2.2;
                     stroke-linecap: round; stroke-linejoin: round; }
    .tree-edge { fill: none; stroke: #212529; stroke-width: 2.2; }
    .graph-node, .tree-node { fill: #fff; stroke: #212529; stroke-width: 2.2; }
    .graph-label { font-family: Menlo, Monaco, Consolas, "Courier New", monospace;
                   font-size: 18px; font-weight: 700; text-anchor: middle;
                   dominant-baseline: central; }
    .graph-note { font-size: 13px; fill: #6c757d; text-anchor: middle; }
  </style>

          <defs>
            <marker id="q3b-arrow" markerWidth="9" markerHeight="9" refX="8" refY="4.5" orient="auto" markerUnits="userSpaceOnUse">
              <path d="M0,0 L9,4.5 L0,9 Z" fill="#495057" />
            </marker>
          </defs>

          <line class="directed-edge" x1="84.8" y1="323.7" x2="245.2" y2="146.3" marker-end="url(#q3b-arrow)" />
          <line class="directed-edge" x1="91.5" y1="335.5" x2="238.5" y2="304.5" marker-end="url(#q3b-arrow)" />
          <line class="directed-edge" x1="86.8" y1="354.2" x2="243.2" y2="485.8" marker-end="url(#q3b-arrow)" />
          <line class="directed-edge" x1="281.3" y1="124.4" x2="468.7" y2="75.6" marker-end="url(#q3b-arrow)" />
          <line class="directed-edge" x1="280.5" y1="138" x2="469.5" y2="212" marker-end="url(#q3b-arrow)" />
          <line class="directed-edge" x1="280.8" y1="292.8" x2="469.2" y2="227.2" marker-end="url(#q3b-arrow)" />
          <line class="directed-edge" x1="280.8" y1="307.2" x2="469.2" y2="372.8" marker-end="url(#q3b-arrow)" />
          <line class="directed-edge" x1="274.6" y1="316.5" x2="475.4" y2="543.5" marker-end="url(#q3b-arrow)" />
          <line class="directed-edge" x1="281.3" y1="505.6" x2="468.7" y2="554.4" marker-end="url(#q3b-arrow)" />
          <line class="directed-edge" x1="510.2" y1="78.7" x2="679.8" y2="151.3" marker-end="url(#q3b-arrow)" />
          <line class="directed-edge" x1="511.2" y1="214" x2="678.8" y2="166" marker-end="url(#q3b-arrow)" />
          <line class="directed-edge" x1="508.7" y1="231.6" x2="681.3" y2="338.4" marker-end="url(#q3b-arrow)" />
          <line class="directed-edge" x1="511.8" y1="376.9" x2="678.2" y2="353.1" marker-end="url(#q3b-arrow)" />
          <line class="directed-edge" x1="505.6" y1="544.4" x2="684.4" y2="365.6" marker-end="url(#q3b-arrow)" />
          <line class="directed-edge" x1="511.9" y1="557.9" x2="678.1" y2="542.1" marker-end="url(#q3b-arrow)" />
          <line class="directed-edge" x1="720.4" y1="168.4" x2="874.6" y2="231.6" marker-end="url(#q3b-arrow)" />
          <line class="directed-edge" x1="719.2" y1="339.2" x2="875.8" y2="250.8" marker-end="url(#q3b-arrow)" />
          <line class="directed-edge" x1="718.7" y1="361.5" x2="876.3" y2="458.5" marker-end="url(#q3b-arrow)" />
          <line class="directed-edge" x1="720.7" y1="532.6" x2="874.3" y2="477.4" marker-end="url(#q3b-arrow)" />
          <line class="directed-edge" x1="914.1" y1="250.9" x2="1050.9" y2="329.1" marker-end="url(#q3b-arrow)" />
          <line class="directed-edge" x1="912.7" y1="456.9" x2="1052.3" y2="353.1" marker-end="url(#q3b-arrow)" />

          <path class="directed-edge" d="M278.5 118 C430 20, 560 20, 684.4 144.4" marker-end="url(#q3b-arrow)" />
          <path class="directed-edge" d="M278.3 512.2 C500 660, 750 650, 881.2 487.1" marker-end="url(#q3b-arrow)" />

          <circle class="graph-node" cx="70" cy="340" r="22" /><text class="graph-label" x="70" y="340">1</text>
          <circle class="graph-node" cx="260" cy="130" r="22" /><text class="graph-label" x="260" y="130">2</text>
          <circle class="graph-node" cx="260" cy="300" r="22" /><text class="graph-label" x="260" y="300">3</text>
          <circle class="graph-node" cx="260" cy="500" r="22" /><text class="graph-label" x="260" y="500">4</text>
          <circle class="graph-node" cx="490" cy="70" r="22" /><text class="graph-label" x="490" y="70">5</text>
          <circle class="graph-node" cx="490" cy="220" r="22" /><text class="graph-label" x="490" y="220">6</text>
          <circle class="graph-node" cx="490" cy="380" r="22" /><text class="graph-label" x="490" y="380">7</text>
          <circle class="graph-node" cx="490" cy="560" r="22" /><text class="graph-label" x="490" y="560">8</text>
          <circle class="graph-node" cx="700" cy="160" r="22" /><text class="graph-label" x="700" y="160">9</text>
          <circle class="graph-node" cx="700" cy="350" r="22" /><text class="graph-label" x="700" y="350">10</text>
          <circle class="graph-node" cx="700" cy="540" r="22" /><text class="graph-label" x="700" y="540">11</text>
          <circle class="graph-node" cx="895" cy="240" r="22" /><text class="graph-label" x="895" y="240">12</text>
          <circle class="graph-node" cx="895" cy="470" r="22" /><text class="graph-label" x="895" y="470">13</text>
          <circle class="graph-node" cx="1070" cy="340" r="22" /><text class="graph-label" x="1070" y="340">14</text>
        </svg>
